<svg xmlns="http://www.w3.org/2000/svg" width="1600" height="900" viewBox="0 0 1600 900">
  <defs>
    <linearGradient id="g" x1="0" y1="0" x2="1" y2="1">
      <stop offset="0%" stop-color="#1d4ed8"/>
      <stop offset="100%" stop-color="#0b1120"/>
    </linearGradient>
  </defs>
  <rect width="1600" height="900" fill="url(#g)"/>
  <g fill="#ffffff" opacity="0.14">
    <circle cx="360" cy="190" r="70"/>
    <rect x="320" y="260" width="95" height="240" rx="45"/>
    <rect x="250" y="325" width="220" height="52" rx="26" transform="rotate(-15 250 325)"/>
    <rect x="360" y="500" width="60" height="220" rx="25" transform="rotate(18 360 500)"/>
    <rect x="300" y="500" width="60" height="230" rx="25" transform="rotate(-28 300 500)"/>
    <circle cx="620" cy="650" r="48"/>
  </g>
  <g opacity="0.25" stroke="#93c5fd" stroke-width="4" fill="none">
    <path d="M0 720 Q300 640 600 720 T1200 720 T1600 720"/>
    <path d="M0 780 Q300 700 600 780 T1200 780 T1600 780"/>
  </g>
</svg>
